<svg id="Camada_2" data-name="Camada 2" xmlns="http://www.w3.org/2000/svg" width="395" height="93.195" viewBox="0 0 395 93.195">
  <g id="Camada_1" data-name="Camada 1">
    <path id="Caminho_1" data-name="Caminho 1" d="M199.2,66.238V44.117c0-3.188,1.7-4.747,4.537-4.747h1.344c2.978,0,4.537,1.559,4.537,4.747V66.093c0,7.376,3.123,11.133,9.359,11.133s9.289-3.618,9.289-11.133V44.117c0-3.188,1.613-4.747,4.537-4.747h1.419c2.978,0,4.467,1.559,4.467,4.747V66.093c0,13.262-6.811,20.208-19.783,20.208S199.2,79.49,199.2,66.238Z" transform="translate(-92.113 -18.205)" fill="#fff"/>
    <path id="Caminho_2" data-name="Caminho 2" d="M287.29,81.054V44.547c0-3.333,1.7-5.172,4.537-5.172h1.279c2.763,0,3.682.919,5.317,2.973l19.848,27.3V44.117c0-3.118,1.489-4.747,4.467-4.747h.995c2.908,0,4.392,1.613,4.392,4.747V80.63c0,3.4-1.7,5.177-4.462,5.177h-.855c-2.763,0-3.543-.71-5.032-2.554L297.144,54.9V81.054c0,3.118-1.489,4.752-4.537,4.752h-.989C288.779,85.806,287.29,84.172,287.29,81.054Z" transform="translate(-132.848 -18.205)" fill="#fff"/>
    <path id="Caminho_3" data-name="Caminho 3" d="M379.6,81.054V44.117c0-3.188,1.559-4.747,4.467-4.747h1.419c3.048,0,4.607,1.559,4.607,4.747V81.054c0,3.118-1.559,4.752-4.607,4.752h-1.419C381.159,85.806,379.6,84.172,379.6,81.054Z" transform="translate(-175.533 -18.205)" fill="#fff"/>
    <path id="Caminho_4" data-name="Caminho 4" d="M415.47,80.23V45.707c0-3.688,2.059-5.817,5.462-5.817h23.681c3.258,0,4.838,1.489,4.838,4.182v.43c0,2.9-1.559,4.3-4.838,4.3H425.754V60.238h13.612c3.333,0,4.838,1.419,4.838,4.043V64.5c0,2.763-1.484,4.252-4.838,4.252H426.1V81.225c0,3.188-1.559,4.838-4.607,4.838h-1.613C417.029,86.047,415.47,83.918,415.47,80.23Z" transform="translate(-192.12 -18.446)" fill="#fff"/>
    <path id="Caminho_5" data-name="Caminho 5" d="M489.9,73.7l-2.839,7.376c-1.274,3.613-3.543,4.838-5.741,4.838-2.908,0-5.817-2.269-5.462-3.188l15.654-40.507c.565-1.914,2.054-3.118,6.806-3.118s6.1,1.2,6.736,3.118l16.025,40.416c.355.849-2.548,3.258-5.671,3.258-2.269,0-4.607-1.2-6.026-4.962l-2.763-7.23Zm14.515-7.773c.07,0-6.236-16.73-6.236-16.73l-6.3,16.73Z" transform="translate(-220.03 -18.08)" fill="#fff"/>
    <path id="Caminho_6" data-name="Caminho 6" d="M605.792,82.219c.425.495-1.559,3.828-6.026,3.828-2.978,0-4.682-1.279-6.876-4.258l-9.784-12.332h-3.973V81.284c0,2.978-1.559,4.752-4.537,4.752h-1.489c-2.833,0-4.4-2.059-4.4-5.741V45.707c0-3.688,2.059-5.817,5.462-5.817h13.542c11.908,0,18.079,4.962,18.079,14.321,0,7.306-4.113,12.268-11.913,13.542ZM586.977,61.791c5.6,0,8.295-2.623,8.295-6.876,0-4.467-2.839-6.876-8.51-6.876h-7.795V61.8Z" transform="translate(-262.981 -18.446)" fill="#fff"/>
    <path id="Caminho_7" data-name="Caminho 7" d="M650,81.054V44.611c0-3.4,1.914-5.241,5.177-5.241h2.887c3.193,0,4.258.989,5.462,3.682l9.284,21.767,9.359-21.767c1.28-2.833,2.414-3.682,5.317-3.682h2.769c3.4,0,5.317,1.839,5.317,5.241V81.054c0,3.118-1.134,4.752-4.113,4.752h-1.613c-2.838,0-4.113-1.613-4.113-4.752V53.761l-7.661,18.574c-.779,1.774-1.2,3.263-5.316,3.263s-4.468-1.419-5.247-3.263l-7.682-18.219V81.054c0,3.118-1.075,4.752-4.113,4.752H654.1C651.177,85.806,650,84.172,650,81.054Z" transform="translate(-300.571 -18.205)" fill="#fff"/>
    <path id="Caminho_8" data-name="Caminho 8" d="M52.382,48.25H20.213a20.212,20.212,0,1,0,0,40.424,3.764,3.764,0,1,0,0-7.529,12.686,12.686,0,1,1,0-25.371l32.169,0a3.763,3.763,0,1,0,0-7.526Z" transform="translate(0 -22.312)" fill="#fff"/>
    <path id="Caminho_9" data-name="Caminho 9" d="M21.06,81.129a5.494,5.494,0,1,0,5.494-5.489A5.494,5.494,0,0,0,21.06,81.129Z" transform="translate(-9.738 -34.977)" fill="#fff"/>
    <path id="Caminho_10" data-name="Caminho 10" d="M105.111,48.248a3.763,3.763,0,0,0,0,7.526,12.686,12.686,0,1,1,0,25.371l-32.147,0a3.763,3.763,0,0,0,0,7.526h32.147a20.212,20.212,0,1,0,0-40.424Z" transform="translate(-31.999 -22.309)" fill="#fff"/>
    <path id="Caminho_11" data-name="Caminho 11" d="M138.639,86.617a5.489,5.489,0,1,0-5.489-5.489A5.489,5.489,0,0,0,138.639,86.617Z" transform="translate(-61.571 -34.977)" fill="#fff"/>
    <path id="Caminho_12" data-name="Caminho 12" d="M69.488,0A20.235,20.235,0,0,0,49.28,20.213a3.763,3.763,0,1,0,7.526,0,12.686,12.686,0,1,1,25.371,0l0,32.169a3.763,3.763,0,1,0,7.526,0V20.213A20.24,20.24,0,0,0,69.488,0Z" transform="translate(-22.788)" fill="#fff"/>
    <path id="Caminho_13" data-name="Caminho 13" d="M82.6,19.93a5.489,5.489,0,1,0,5.489,5.489A5.489,5.489,0,0,0,82.6,19.93Z" transform="translate(-35.657 -9.216)" fill="#fff"/>
    <path id="Caminho_14" data-name="Caminho 14" d="M85.938,101.089a3.763,3.763,0,0,0-3.763,3.763,12.686,12.686,0,1,1-25.371,0l0-32.169a3.763,3.763,0,0,0-7.526,0v32.169a20.212,20.212,0,1,0,40.424,0A3.763,3.763,0,0,0,85.938,101.089Z" transform="translate(-22.788 -31.87)" fill="#fff"/>
    <path id="Caminho_15" data-name="Caminho 15" d="M82.6,142.318a5.494,5.494,0,1,0-5.489-5.489A5.494,5.494,0,0,0,82.6,142.318Z" transform="translate(-35.657 -60.729)" fill="#fff"/>
  </g>
</svg>
