<svg id="Camada_2" data-name="Camada 2" xmlns="http://www.w3.org/2000/svg" width="291.359" height="68.743" viewBox="0 0 291.359 68.743">
  <g id="Camada_1" data-name="Camada 1">
    <path id="Caminho_1" data-name="Caminho 1" d="M199.2,59.189V42.871c0-2.351,1.253-3.5,3.347-3.5h.991c2.2,0,3.347,1.15,3.347,3.5v16.21c0,5.44,2.3,8.212,6.9,8.212s6.852-2.669,6.852-8.212V42.871c0-2.351,1.19-3.5,3.347-3.5h1.047c2.2,0,3.3,1.15,3.3,3.5v16.21c0,9.782-5.024,14.906-14.592,14.906S199.2,68.963,199.2,59.189Z" transform="translate(-120.211 -23.759)" fill="#213b7a"/>
    <path id="Caminho_2" data-name="Caminho 2" d="M287.29,70.117V43.189c0-2.458,1.257-3.815,3.347-3.815h.944c2.038,0,2.716.678,3.922,2.193L310.142,61.7V42.871c0-2.3,1.1-3.5,3.3-3.5h.734c2.145,0,3.24,1.19,3.24,3.5V69.8c0,2.51-1.253,3.819-3.291,3.819h-.63c-2.038,0-2.613-.523-3.712-1.884L294.558,50.822v19.3c0,2.3-1.1,3.505-3.347,3.505h-.73C288.388,73.622,287.29,72.417,287.29,70.117Z" transform="translate(-173.371 -23.759)" fill="#213b7a"/>
    <path id="Caminho_3" data-name="Caminho 3" d="M379.6,70.117V42.871c0-2.351,1.15-3.5,3.3-3.5h1.047c2.248,0,3.4,1.15,3.4,3.5V70.117c0,2.3-1.15,3.505-3.4,3.505H382.9C380.75,73.622,379.6,72.417,379.6,70.117Z" transform="translate(-229.077 -23.759)" fill="#213b7a"/>
    <path id="Caminho_4" data-name="Caminho 4" d="M415.47,69.646V44.18c0-2.72,1.519-4.29,4.029-4.29h17.467c2.4,0,3.569,1.1,3.569,3.085v.317c0,2.141-1.15,3.172-3.569,3.172h-13.91V54.9H433.1c2.458,0,3.569,1.047,3.569,2.982v.159c0,2.038-1.094,3.137-3.569,3.137h-9.782v9.2c0,2.351-1.15,3.569-3.4,3.569h-1.19C416.62,73.936,415.47,72.366,415.47,69.646Z" transform="translate(-250.723 -24.072)" fill="#213b7a"/>
    <path id="Caminho_5" data-name="Caminho 5" d="M486.2,64.621l-2.094,5.44c-.94,2.665-2.613,3.569-4.235,3.569-2.145,0-4.291-1.673-4.029-2.351L487.394,41.4c.416-1.412,1.515-2.3,5.02-2.3s4.5.888,4.969,2.3L509.2,71.211c.262.627-1.88,2.4-4.183,2.4-1.673,0-3.4-.888-4.445-3.66l-2.038-5.333Zm10.706-5.734c.052,0-4.6-12.34-4.6-12.34l-4.647,12.34Z" transform="translate(-287.146 -23.596)" fill="#213b7a"/>
    <path id="Caminho_6" data-name="Caminho 6" d="M596.063,71.113c.313.365-1.15,2.823-4.445,2.823-2.2,0-3.454-.944-5.072-3.141l-7.217-9.1H576.4v8.724c0,2.2-1.15,3.505-3.347,3.505h-1.1c-2.09,0-3.244-1.519-3.244-4.235V44.18c0-2.72,1.519-4.29,4.029-4.29h9.989c8.783,0,13.335,3.66,13.335,10.564,0,5.389-3.034,9.049-8.787,9.989ZM582.184,56.045c4.132,0,6.119-1.935,6.119-5.072,0-3.3-2.094-5.072-6.277-5.072h-5.75V56.049Z" transform="translate(-343.199 -24.072)" fill="#213b7a"/>
    <path id="Caminho_7" data-name="Caminho 7" d="M650,70.117V43.236c0-2.51,1.412-3.866,3.819-3.866h2.129c2.355,0,3.141.73,4.029,2.716l6.848,16.056,6.9-16.056c.944-2.09,1.78-2.716,3.922-2.716h2.042c2.51,0,3.922,1.356,3.922,3.866V70.117c0,2.3-.837,3.505-3.034,3.505h-1.189c-2.094,0-3.033-1.19-3.033-3.505V49.985l-5.651,13.7c-.575,1.309-.888,2.407-3.922,2.407s-3.3-1.047-3.87-2.407l-5.666-13.438v19.87c0,2.3-.793,3.505-3.034,3.505h-1.189C650.868,73.622,650,72.417,650,70.117Z" transform="translate(-392.255 -23.759)" fill="#213b7a"/>
    <path id="Caminho_8" data-name="Caminho 8" d="M38.638,48.25H14.91a14.909,14.909,0,1,0,0,29.817,2.777,2.777,0,1,0,0-5.553,9.357,9.357,0,1,1,0-18.714l23.728,0a2.776,2.776,0,1,0,0-5.551Z" transform="translate(0 -29.117)" fill="#37b187"/>
    <path id="Caminho_9" data-name="Caminho 9" d="M21.06,79.689a4.053,4.053,0,1,0,4.053-4.049A4.053,4.053,0,0,0,21.06,79.689Z" transform="translate(-12.709 -45.646)" fill="#37b187"/>
    <path id="Caminho_10" data-name="Caminho 10" d="M95.688,48.247a2.776,2.776,0,0,0,0,5.551,9.357,9.357,0,1,1,0,18.714l-23.713,0a2.776,2.776,0,0,0,0,5.551H95.688a14.909,14.909,0,1,0,0-29.817Z" transform="translate(-41.76 -29.114)" fill="#37b187"/>
    <path id="Caminho_11" data-name="Caminho 11" d="M137.2,83.737a4.049,4.049,0,1,0-4.049-4.049A4.049,4.049,0,0,0,137.2,83.737Z" transform="translate(-80.352 -45.646)" fill="#37b187"/>
    <path id="Caminho_12" data-name="Caminho 12" d="M64.186,0A14.925,14.925,0,0,0,49.28,14.91a2.776,2.776,0,1,0,5.551,0,9.357,9.357,0,1,1,18.714,0l0,23.728a2.776,2.776,0,1,0,5.551,0V14.91A14.929,14.929,0,0,0,64.186,0Z" transform="translate(-29.739)" fill="#3568b0"/>
    <path id="Caminho_13" data-name="Caminho 13" d="M81.159,19.93a4.049,4.049,0,1,0,4.049,4.049A4.049,4.049,0,0,0,81.159,19.93Z" transform="translate(-46.533 -12.027)" fill="#3568b0"/>
    <path id="Caminho_14" data-name="Caminho 14" d="M76.319,92.648a2.776,2.776,0,0,0-2.776,2.776,9.357,9.357,0,1,1-18.714,0l0-23.728a2.776,2.776,0,0,0-5.551,0V95.424a14.909,14.909,0,1,0,29.817,0A2.776,2.776,0,0,0,76.319,92.648Z" transform="translate(-29.739 -41.591)" fill="#3568b0"/>
    <path id="Caminho_15" data-name="Caminho 15" d="M81.159,139.435a4.053,4.053,0,1,0-4.049-4.049A4.053,4.053,0,0,0,81.159,139.435Z" transform="translate(-46.533 -79.254)" fill="#3568b0"/>
  </g>
</svg>
