<svg xmlns="http://www.w3.org/2000/svg" width="2036.232" height="2098.453" viewBox="0 0 2036.232 2098.453">
  <g id="Camada_2" data-name="Camada 2" transform="translate(14 -45)" opacity="0.1">
    <g id="Camada_1" data-name="Camada 1" transform="translate(-14 45)">
      <path id="Caminho_40" data-name="Caminho 40" d="M1142.676,355.717h-701.8C197.774,355.717,0,559.84,0,810.78s197.774,455.11,440.873,455.11c45.371,0,81.92-37.9,81.92-84.58s-36.736-84.72-82.107-84.72c-152.544,0-276.707-128.131-276.707-285.622S288.143,525.345,440.686,525.345h701.989c45.324,0,82.107-37.9,82.107-84.72S1188,355.717,1142.676,355.717Z" transform="translate(0 228.364)" fill="#37b187"/>
      <path id="Caminho_41" data-name="Caminho 41" d="M150.44,681.186c0,68.29,53.633,123.65,119.776,123.65s119.776-55.36,119.776-123.65-53.633-123.6-119.776-123.6S150.44,612.943,150.44,681.186Z" transform="translate(96.58 357.958)" fill="#37b187"/>
      <path id="Caminho_42" data-name="Caminho 42" d="M1278.1,355.717c-45.371,0-82.107,37.9-82.107,84.72s36.735,84.72,82.107,84.72c152.543,0,276.707,128.131,276.707,285.622S1430.641,1096.4,1278.1,1096.4H576.3c-45.324,0-82.107,37.949-82.107,84.721s36.782,84.767,82.107,84.767h701.8c243.1,0,440.873-204.169,440.873-455.11S1521.2,355.717,1278.1,355.717Z" transform="translate(317.26 228.364)" fill="#37b187"/>
      <path id="Caminho_43" data-name="Caminho 43" d="M1070.714,804.836c66.143,0,119.776-55.36,119.776-123.65s-53.633-123.6-119.776-123.6-119.775,55.36-119.775,123.6S1004.571,804.836,1070.714,804.836Z" transform="translate(610.485 357.958)" fill="#37b187"/>
      <path id="Caminho_44" data-name="Caminho 44" d="M792.856,0c-243.1,0-440.92,204.169-440.92,455.063,0,46.678,36.782,84.767,82.107,84.767s82.2-37.949,82.2-84.767c0-157.491,124.117-285.576,276.707-285.576s276.707,128.084,276.707,285.576v724.395c0,46.678,36.735,84.72,82.06,84.72s82.106-37.9,82.106-84.72V455.063C1233.729,204.169,1035.955,0,792.856,0Z" transform="translate(225.937 0)" fill="#3568b0"/>
      <path id="Caminho_45" data-name="Caminho 45" d="M670.432,146.886c-66.143,0-119.729,55.36-119.729,123.65s53.586,123.6,119.729,123.6,119.635-55.36,119.635-123.6S736.575,146.886,670.432,146.886Z" transform="translate(353.542 94.298)" fill="#3568b0"/>
      <path id="Caminho_46" data-name="Caminho 46" d="M1151.586,1232.438c-45.325,0-82.06,37.95-82.06,84.767,0,157.444-124.163,285.576-276.707,285.576S516.206,1474.65,516.206,1317.205V592.81c0-46.678-36.782-84.72-82.106-84.72s-82.107,37.9-82.107,84.72v724.395c0,250.894,197.821,455.063,440.92,455.063s440.873-204.169,440.873-455.063C1233.692,1270.2,1196.957,1232.438,1151.586,1232.438Z" transform="translate(225.973 326.185)" fill="#3568b0"/>
      <path id="Caminho_47" data-name="Caminho 47" d="M670.432,1215.5c66.143,0,119.775-55.36,119.775-123.6s-53.633-123.65-119.775-123.65S550.7,1023.611,550.7,1091.9,604.289,1215.5,670.432,1215.5Z" transform="translate(353.542 621.6)" fill="#3568b0"/>
    </g>
  </g>
</svg>
