<svg id="Camada_2" data-name="Camada 2" xmlns="http://www.w3.org/2000/svg" width="249.265" height="256.882" viewBox="0 0 249.265 256.882">
  <g id="Camada_1" data-name="Camada 1">
    <path id="Caminho_32" data-name="Caminho 32" d="M139.881,125.13H53.969C24.211,125.13,0,150.118,0,180.837s24.211,55.712,53.969,55.712a10.368,10.368,0,0,0-.023-20.725c-18.674,0-33.873-15.685-33.873-34.964s15.2-34.964,33.873-34.964h85.934a10.388,10.388,0,0,0,0-20.765Z" transform="translate(0 -53.63)" fill="#37b187"/>
    <path id="Caminho_33" data-name="Caminho 33" d="M52.92,211.271A14.67,14.67,0,1,0,67.582,196.14,14.906,14.906,0,0,0,52.92,211.271Z" transform="translate(-22.681 -84.064)" fill="#37b187"/>
    <path id="Caminho_34" data-name="Caminho 34" d="M269.8,125.13a10.376,10.376,0,0,0,0,20.742c18.674,0,33.873,15.685,33.873,34.964S288.476,215.8,269.8,215.8H183.891a10.379,10.379,0,0,0,0,20.748H269.8c29.759,0,53.969-24.993,53.969-55.712S299.561,125.13,269.8,125.13Z" transform="translate(-74.507 -53.63)" fill="#37b187"/>
    <path id="Caminho_35" data-name="Caminho 35" d="M349.172,226.407a15.141,15.141,0,1,0-14.662-15.137A14.906,14.906,0,0,0,349.172,226.407Z" transform="translate(-143.368 -84.064)" fill="#37b187"/>
    <path id="Caminho_36" data-name="Caminho 36" d="M177.775,0C148.016,0,123.8,24.993,123.8,55.707a10.062,10.062,0,1,0,20.114,0c0-19.279,15.194-34.959,33.873-34.959S211.66,36.427,211.66,55.707v88.677a10.053,10.053,0,1,0,20.1,0V55.707C231.745,24.993,207.534,0,177.775,0Z" transform="translate(-53.06)" fill="#3568b0"/>
    <path id="Caminho_37" data-name="Caminho 37" d="M208.377,51.67a15.142,15.142,0,1,0,14.645,15.137A14.9,14.9,0,0,0,208.377,51.67Z" transform="translate(-83.027 -22.145)" fill="#3568b0"/>
    <path id="Caminho_38" data-name="Caminho 38" d="M221.7,267.4a10.215,10.215,0,0,0-10.045,10.377c0,19.274-15.2,34.959-33.873,34.959s-33.862-15.685-33.862-34.959V189.1a10.056,10.056,0,1,0-20.1,0v88.677c0,30.713,24.216,55.707,53.975,55.707s53.969-24.993,53.969-55.707A10.218,10.218,0,0,0,221.7,267.4Z" transform="translate(-53.068 -76.602)" fill="#3568b0"/>
    <path id="Caminho_39" data-name="Caminho 39" d="M208.377,370.867a15.141,15.141,0,1,0-14.657-15.131A14.9,14.9,0,0,0,208.377,370.867Z" transform="translate(-83.027 -145.979)" fill="#3568b0"/>
  </g>
</svg>
