<svg xmlns="http://www.w3.org/2000/svg" xmlns:xlink="http://www.w3.org/1999/xlink" width="375" height="804" viewBox="0 0 375 804">
  <defs>
    <clipPath id="clip-path">
      <rect id="Ret칙ngulo_2" data-name="Ret칙ngulo 2" width="375" height="804" transform="translate(13.981 574.864)" fill="#ededed" stroke="#707070" stroke-width="1"/>
    </clipPath>
  </defs>
  <g id="Grupo_de_m치scara_1" data-name="Grupo de m치scara 1" transform="translate(-13.981 -574.864)" opacity="0.8" clip-path="url(#clip-path)">
    <g id="Camada_2" data-name="Camada 2" transform="translate(105.806 726.187)" opacity="0.611">
      <g id="Camada_1" data-name="Camada 1">
        <path id="Caminho_16" data-name="Caminho 16" d="M317.819,300.606h-195.2C55.008,300.606,0,357.38,0,427.175S55.008,553.758,122.623,553.758c12.619,0,22.785-10.542,22.785-23.525s-10.217-23.564-22.837-23.564c-42.428,0-76.962-35.638-76.962-79.442s34.534-79.442,76.962-79.442H317.819c12.606,0,22.837-10.542,22.837-23.564S330.426,300.606,317.819,300.606Z" transform="translate(0 -138.152)" fill="#fff"/>
        <path id="Caminho_17" data-name="Caminho 17" d="M127.132,505.575c0,18.994,14.917,34.391,33.314,34.391s33.314-15.4,33.314-34.391S178.843,471.2,160.446,471.2,127.132,486.594,127.132,505.575Z" transform="translate(-58.427 -216.552)" fill="#fff"/>
        <path id="Caminho_18" data-name="Caminho 18" d="M635.658,300.606c-12.619,0-22.837,10.542-22.837,23.564s10.217,23.564,22.837,23.564c42.428,0,76.962,35.638,76.962,79.442s-34.535,79.442-76.962,79.442h-195.2c-12.606,0-22.837,10.555-22.837,23.564s10.23,23.577,22.837,23.577h195.2c67.615,0,122.623-56.787,122.623-126.583S703.273,300.606,635.658,300.606Z" transform="translate(-191.931 -138.152)" fill="#fff"/>
        <path id="Caminho_19" data-name="Caminho 19" d="M836.924,539.967c18.4,0,33.314-15.4,33.314-34.391S855.32,471.2,836.924,471.2s-33.314,15.4-33.314,34.378S818.527,539.967,836.924,539.967Z" transform="translate(-369.322 -216.552)" fill="#fff"/>
        <path id="Caminho_20" data-name="Caminho 20" d="M420.047,0c-67.614,0-122.636,56.787-122.636,126.57,0,12.983,10.23,23.577,22.837,23.577s22.863-10.555,22.863-23.577c0-43.8,34.521-79.429,76.962-79.429s76.962,35.625,76.962,79.429V328.05c0,12.983,10.217,23.564,22.824,23.564S542.7,341.072,542.7,328.05V126.569C542.669,56.787,487.661,0,420.047,0Z" transform="translate(-136.684 0)" fill="#fff"/>
        <path id="Caminho_21" data-name="Caminho 21" d="M498.684,124.129c-18.4,0-33.3,15.4-33.3,34.391s14.9,34.378,33.3,34.378,33.275-15.4,33.275-34.378S517.081,124.129,498.684,124.129Z" transform="translate(-213.88 -57.047)" fill="#fff"/>
        <path id="Caminho_22" data-name="Caminho 22" d="M519.854,630.839c-12.606,0-22.824,10.555-22.824,23.577,0,43.791-34.534,79.429-76.962,79.429s-76.936-35.638-76.936-79.429V452.936c0-12.983-10.23-23.564-22.837-23.564s-22.837,10.542-22.837,23.564v201.48c0,69.783,55.021,126.57,122.636,126.57S542.717,724.2,542.717,654.416C542.691,641.342,532.474,630.839,519.854,630.839Z" transform="translate(-136.706 -197.33)" fill="#fff"/>
        <path id="Caminho_23" data-name="Caminho 23" d="M498.684,887.01c18.4,0,33.314-15.4,33.314-34.378s-14.917-34.391-33.314-34.391-33.3,15.4-33.3,34.391S480.287,887.01,498.684,887.01Z" transform="translate(-213.88 -376.045)" fill="#fff"/>
      </g>
    </g>
  </g>
</svg>
