<svg xmlns="http://www.w3.org/2000/svg" xmlns:xlink="http://www.w3.org/1999/xlink" width="1920" height="1080" viewBox="0 0 1920 1080">
  <defs>
    <clipPath id="clip-path">
      <rect id="Ret칙ngulo_39" data-name="Ret칙ngulo 39" width="1920" height="1080" transform="translate(13.981 574.864)" fill="#ededed" stroke="#707070" stroke-width="1"/>
    </clipPath>
  </defs>
  <g id="Grupo_de_m치scara_3" data-name="Grupo de m치scara 3" transform="translate(-13.981 -574.864)" opacity="0.8" clip-path="url(#clip-path)">
    <g id="Camada_2" data-name="Camada 2" transform="translate(601.105 -223.393)" opacity="0.611">
      <g id="Camada_1" data-name="Camada 1">
        <path id="Caminho_48" data-name="Caminho 48" d="M991.734,300.606h-609.1C171.649,300.606,0,477.765,0,695.557S171.649,1090.55,382.636,1090.55c39.378,0,71.1-32.9,71.1-73.408s-31.883-73.529-71.261-73.529c-132.393,0-240.155-111.206-240.155-247.893S250.081,447.827,382.474,447.827h609.26c39.337,0,71.261-32.9,71.261-73.529S1031.071,300.606,991.734,300.606Z" transform="translate(0 206.321)" fill="#fff"/>
        <path id="Caminho_49" data-name="Caminho 49" d="M127.132,578.472c0,59.269,46.548,107.316,103.954,107.316S335.04,637.741,335.04,578.472,288.492,471.2,231.086,471.2,127.132,519.244,127.132,578.472Z" transform="translate(87.257 323.406)" fill="#fff"/>
        <path id="Caminho_50" data-name="Caminho 50" d="M1097.983,300.606c-39.378,0-71.261,32.9-71.261,73.529s31.883,73.529,71.261,73.529c132.393,0,240.155,111.205,240.155,247.893s-107.762,247.893-240.155,247.893h-609.1c-39.337,0-71.261,32.936-71.261,73.529s31.923,73.57,71.261,73.57h609.1c210.986,0,382.636-177.2,382.636-394.992S1308.97,300.606,1097.983,300.606Z" transform="translate(286.636 206.321)" fill="#fff"/>
        <path id="Caminho_51" data-name="Caminho 51" d="M907.564,685.789c57.406,0,103.954-48.047,103.954-107.316S964.969,471.2,907.564,471.2,803.61,519.244,803.61,578.472,850.158,685.789,907.564,685.789Z" transform="translate(551.557 323.406)" fill="#fff"/>
        <path id="Caminho_52" data-name="Caminho 52" d="M680.087,0C469.1,0,297.411,177.2,297.411,394.952c0,40.512,31.923,73.57,71.26,73.57s71.342-32.936,71.342-73.57c0-136.688,107.721-247.852,240.155-247.852S920.323,258.264,920.323,394.952v628.706c0,40.512,31.883,73.529,71.22,73.529s71.261-32.9,71.261-73.529V394.952C1062.723,177.2,891.074,0,680.087,0Z" transform="translate(204.128 0)" fill="#fff"/>
        <path id="Caminho_53" data-name="Caminho 53" d="M569.3,124.129c-57.405,0-103.913,48.047-103.913,107.316S511.891,338.721,569.3,338.721s103.832-48.047,103.832-107.276S626.7,124.129,569.3,124.129Z" transform="translate(319.416 85.196)" fill="#fff"/>
        <path id="Caminho_54" data-name="Caminho 54" d="M991.43,1058.037c-39.337,0-71.22,32.936-71.22,73.57,0,136.647-107.762,247.852-240.155,247.852S439.98,1268.254,439.98,1131.607V502.9c0-40.512-31.923-73.529-71.261-73.529s-71.261,32.9-71.261,73.529v628.706c0,217.752,171.69,394.951,382.676,394.951s382.636-177.2,382.636-394.951C1062.69,1090.812,1030.807,1058.037,991.43,1058.037Z" transform="translate(204.161 294.699)" fill="#fff"/>
        <path id="Caminho_55" data-name="Caminho 55" d="M569.3,1032.832c57.405,0,103.954-48.047,103.954-107.276S626.7,818.24,569.3,818.24,465.383,866.287,465.383,925.556,511.891,1032.832,569.3,1032.832Z" transform="translate(319.416 561.599)" fill="#fff"/>
      </g>
    </g>
  </g>
</svg>
